<?xml version="1.0"?>
<svg width="1500" height="850" xmlns="http://www.w3.org/2000/svg" xmlns:svg="http://www.w3.org/2000/svg" preserveAspectRatio="xMidYMid meet" version="1.2">
 <defs>
  <!-- Defines a reusable clip path -->
  <clipPath id="e4f1f86cbf">
   <path d="m337.25,516.43l860.75,0l0,467.25l-860.75,0l0,-467.25zm0,0" id="svg_1"/>
  </clipPath>
  
  <!-- This is the combined filter with a WHITE shadow and blue glow -->
  <filter id="shadow-and-glow" x="-50%" y="-50%" width="200%" height="200%">
    <!-- Step 1: Create the WHITE Shadow -->
    <!-- First, get the blurred silhouette of the shape -->
    <feGaussianBlur in="SourceAlpha" stdDeviation="8" result="shadowBlur"/>
    <!-- Create a solid white color... -->
    <feFlood flood-color="#6c93c4" result="whiteColor"/>
    <!-- ...and use the blur as a mask to create a white, blurred shape. -->
    <feComposite in="whiteColor" in2="shadowBlur" operator="in" result="whiteBlur"/>
    <!-- Finally, offset this new white blur to create the shadow effect. -->
    <feOffset in="whiteBlur" dx="18" dy="8" result="offsetShadow"/>

    <!-- Step 2: Create the Glow (This part is unchanged) -->
    <!-- <feGaussianBlur in="SourceAlpha" stdDeviation="12" result="glowBlur"/>
    <feFlood flood-color="#6c93c4" flood-opacity="0.8" result="glowColor"/>
    <feComposite in="glowColor" in2="glowBlur" operator="in" result="coloredGlow"/> -->

    <!-- Step 3: Merge all layers together (This part is unchanged) -->
    <feMerge>
      <feMergeNode in="offsetShadow"/> <!-- The white shadow goes on the bottom -->
      <feMergeNode in="coloredGlow"/>  <!-- The glow goes on top of the shadow -->
      <feMergeNode in="SourceGraphic"/> <!-- The original shape goes on top of everything -->
    </feMerge>
  </filter>

 </defs>
 <g class="layer" display="inline">
  <title>Layer 1</title>
  <!-- The combined filter is applied to the path here -->
  <path d="m1383.01,648.08c-46.16,0 -83.58,38.12 -83.58,85.15c0,47.01 37.42,85.11 83.58,85.11c46.16,0 83.6,-38.1 83.6,-85.11c0,-47.03 -37.44,-85.15 -83.6,-85.15zm-927.85,-278.76c0,-5.87 -6.66,-9.16 -11.16,-5.5c-29.11,23.52 -60.75,44.44 -94.97,62.71c-43.39,23.69 -73.43,41.62 -90.08,53.77c-16.66,12.16 -31.81,26.71 -45.47,43.72c-27.96,35.27 -41.94,76.27 -41.94,123.03c0,40.09 10.86,73.21 32.57,99.35c21.67,26.09 49.18,39.18 82.49,39.18c29.13,0 56.65,-9.28 82.5,-27.81c25.85,-18.5 45.33,-43.27 58.42,-74.28c7.79,-17.23 13.96,-37.77 18.48,-61.63c1.16,-6.3 2.26,-12.8 3.22,-19.57c3.95,-27.93 5.94,-59.81 5.94,-95.59l0,-137.39l0,0.01zm273.62,440.22l0,1.77c0,3.88 -3.09,7.03 -6.9,7.03l-103,0c-42.42,0 -77.66,-10.62 -105.71,-31.85c-17.22,-12.99 -34.93,-34.87 -53.14,-65.64c-2.21,-3.74 -7.25,-4.5 -10.47,-1.61c-7.03,6.36 -13.75,12.3 -20.15,17.81c-27.17,23.5 -48.52,39.66 -64.09,48.53c-10.24,5.77 -20.91,10.77 -32.01,14.96c-8.31,3.21 -16.87,5.96 -25.67,8.26c-24.03,6.36 -49.92,9.53 -77.61,9.53c-65.74,0 -117.84,-16.08 -156.37,-48.27c-38.54,-32.17 -57.76,-75.62 -57.76,-130.29c0,-50.45 15.77,-92.64 47.39,-126.67c17.89,-18.81 38.47,-33.86 61.76,-45.13c23.26,-11.23 56.94,-22.61 101.07,-34.15c51.89,-13.36 90.23,-24.62 114.99,-33.72c24.72,-9.12 45.47,-20.05 62.16,-32.81c19.09,-13.95 32.23,-30.37 39.36,-49.21c7.17,-18.83 10.74,-44.95 10.74,-78.36c0,-71.08 -13.12,-123.03 -39.36,-155.83c-11.94,-15.15 -27.3,-27.31 -46.09,-36.45c-8.94,-4.33 -18.01,-7.61 -27.29,-9.89c-3.15,-0.76 -5.43,-3.56 -5.43,-6.85l0,-7.23c0,-4.17 3.52,-7.47 7.59,-7.04c21.94,2.35 44.41,6.32 67.34,11.89c40.02,9.72 73.46,22.19 100.36,37.34c38.84,22.5 63.03,51.69 72.6,87.48c4.77,18.24 3.24,49.9 3.24,93.03l3.9,336.2c0,6.92 0.05,13.57 0.12,19.93l0.05,0l0,5.58c0,45.5 2.51,79.31 7.57,101.4c5.04,22.14 14.39,40.4 28.01,54.71c11.86,12.52 25.58,21.83 41.18,27.84c9.92,3.85 21.84,6.75 35.75,8.71c6.07,0.82 12.53,1.48 19.36,1.98c3.64,0.27 6.49,3.32 6.49,7.03l0.02,-0.01zm533.92,1.58l0,0.19c0,3.88 -3.1,7.03 -6.9,7.03l-363.78,0c-3.81,0 -6.9,-3.14 -6.9,-7.03l0,-1.92c0,-3.62 2.73,-6.68 6.31,-6.99c25.3,-2.25 43.75,-5.15 55.39,-11.97c12.56,-7.37 18.86,-18.23 18.86,-32.59c0,-15.51 -7.83,-35.28 -23.44,-59.35c-7.61,-11.61 -21.89,-31.8 -42.82,-60.5c-20.96,-28.69 -38.65,-51.96 -53.13,-69.83l-115.96,-146.44c-0.98,-1.25 -1.53,-2.8 -1.53,-4.41l0,-49.68c0,-1.86 0.74,-3.66 2.04,-4.98l191.42,-193.59c24,-24.05 38.94,-40.44 44.84,-49.16c5.9,-8.73 8.87,-18.33 8.87,-28.79c0,-19.02 -9.14,-33.36 -27.42,-43.06c-8.65,-4.23 -22.62,-7.49 -41.91,-9.79c-3.47,-0.41 -6.07,-3.44 -6.07,-6.97l0,-0.05c0,-3.88 3.07,-7.03 6.9,-7.03l232.38,0c3.81,0 6.91,3.14 6.91,7.03c0,3.56 -2.61,6.58 -6.09,6.97c-14.1,1.65 -26.06,4.24 -35.91,7.82c-11.23,4.07 -23.53,10.96 -36.85,20.65c-14.84,10.87 -40.38,33.96 -76.53,69.24l-180.58,176.52c-2.55,2.51 -2.83,6.58 -0.66,9.43l259.49,337.07l32.55,42.48c24,30.27 48.94,53.92 74.83,70.98c15.62,10.48 29.31,17.95 41.15,22.4c10.47,3.97 23.38,7.08 38.67,9.38c3.39,0.5 5.87,3.47 5.87,6.96" fill="#7c7f7e" fill-rule="nonzero" filter="url(#shadow-and-glow)" id="svg_5"/>
 </g>
</svg>