<svg xmlns="http://www.w3.org/2000/svg" xmlns:xlink="http://www.w3.org/1999/xlink" width="2000" zoomAndPan="magnify" viewBox="0 0 1500 1499.999933" height="2000" preserveAspectRatio="xMidYMid meet" version="1.2"><defs><clipPath id="e4f1f86cbf"><path d="M 337.246094 516.425781 L 1198 516.425781 L 1198 983.675781 L 337.246094 983.675781 Z M 337.246094 516.425781 "/></clipPath></defs><g id="411b0b3cdf"><rect x="0" width="1500" y="0" height="1499.999933" style="fill:#ffffff;fill-opacity:1;stroke:none;"/><rect x="0" width="1500" y="0" height="1499.999933" style="fill:#000000;fill-opacity:1;stroke:none;"/><g clip-rule="nonzero" clip-path="url(#e4f1f86cbf)"><path style=" stroke:none;fill-rule:nonzero;fill:#7c7f7e;fill-opacity:1;" d="M 1148.273438 884.363281 C 1120.902344 884.363281 1098.710938 906.546875 1098.710938 933.929688 C 1098.710938 961.296875 1120.902344 983.484375 1148.273438 983.484375 C 1175.644531 983.484375 1197.839844 961.296875 1197.839844 933.929688 C 1197.839844 906.546875 1175.644531 884.363281 1148.273438 884.363281 Z M 598.113281 722.082031 C 598.113281 718.65625 594.164062 716.75 591.488281 718.882812 C 574.234375 732.574219 555.46875 744.746094 535.183594 755.386719 C 509.445312 769.175781 491.644531 779.621094 481.769531 786.691406 C 471.894531 793.769531 462.914062 802.242188 454.808594 812.144531 C 438.230469 832.667969 429.941406 856.535156 429.941406 883.761719 C 429.941406 907.097656 436.378906 926.382812 449.246094 941.601562 C 462.097656 956.792969 478.410156 964.40625 498.164062 964.40625 C 515.429688 964.40625 531.746094 959.011719 547.078125 948.21875 C 562.410156 937.449219 573.960938 923.03125 581.71875 904.984375 C 586.339844 894.945312 590.003906 882.988281 592.675781 869.101562 C 593.367188 865.429688 594.015625 861.648438 594.589844 857.714844 C 596.929688 841.449219 598.113281 822.894531 598.113281 802.0625 Z M 760.351562 978.355469 L 760.351562 979.390625 C 760.351562 981.648438 758.519531 983.484375 756.261719 983.484375 L 695.1875 983.484375 C 670.035156 983.484375 649.144531 977.296875 632.507812 964.9375 C 622.296875 957.375 611.804688 944.644531 601.003906 926.730469 C 599.6875 924.550781 596.699219 924.105469 594.792969 925.792969 C 590.621094 929.492188 586.636719 932.949219 582.839844 936.164062 C 566.730469 949.84375 554.066406 959.25 544.839844 964.40625 C 538.769531 967.769531 532.4375 970.675781 525.855469 973.117188 C 520.929688 974.992188 515.859375 976.585938 510.644531 977.925781 C 496.390625 981.632812 481.035156 983.484375 464.621094 983.484375 C 425.644531 983.484375 394.753906 974.117188 371.902344 955.378906 C 349.054688 936.648438 337.652344 911.355469 337.652344 879.53125 C 337.652344 850.164062 347 825.601562 365.753906 805.785156 C 376.363281 794.835938 388.5625 786.078125 402.371094 779.515625 C 416.15625 772.976562 436.132812 766.363281 462.300781 759.644531 C 493.074219 751.863281 515.800781 745.308594 530.480469 740.007812 C 545.144531 734.699219 557.441406 728.34375 567.339844 720.914062 C 578.664062 712.785156 586.445312 703.234375 590.675781 692.257812 C 594.933594 681.300781 597.050781 666.09375 597.050781 646.644531 C 597.050781 605.261719 589.273438 575.015625 573.714844 555.917969 C 566.628906 547.101562 557.523438 540.015625 546.382812 534.699219 C 541.082031 532.179688 535.695312 530.265625 530.199219 528.941406 C 528.328125 528.496094 526.976562 526.871094 526.976562 524.945312 L 526.976562 520.738281 C 526.976562 518.3125 529.066406 516.394531 531.476562 516.640625 C 544.492188 518.007812 557.8125 520.324219 571.414062 523.558594 C 595.140625 529.21875 614.972656 536.484375 630.917969 545.304688 C 653.953125 558.402344 668.289062 575.386719 673.96875 596.234375 C 676.800781 606.851562 678.203125 624.710938 678.203125 649.816406 L 678.203125 846.113281 C 678.203125 850.144531 678.226562 854.007812 678.265625 857.714844 L 678.304688 857.714844 L 678.304688 860.957031 C 678.304688 887.453125 679.789062 907.125 682.789062 919.992188 C 685.78125 932.878906 691.320312 943.507812 699.402344 951.835938 C 706.429688 959.128906 714.574219 964.550781 723.820312 968.050781 C 729.703125 970.289062 736.769531 971.984375 745.019531 973.117188 C 748.621094 973.597656 752.453125 973.984375 756.503906 974.269531 C 758.664062 974.425781 760.351562 976.195312 760.351562 978.355469 Z M 1076.933594 979.277344 L 1076.933594 979.390625 C 1076.933594 981.648438 1075.089844 983.484375 1072.835938 983.484375 L 857.144531 983.484375 C 854.882812 983.484375 853.050781 981.648438 853.050781 979.390625 L 853.050781 978.269531 C 853.050781 976.15625 854.667969 974.382812 856.785156 974.195312 C 871.785156 972.894531 882.734375 971.199219 889.625 967.226562 C 897.082031 962.941406 900.808594 956.621094 900.808594 948.261719 C 900.808594 939.234375 896.171875 927.71875 886.914062 913.714844 C 882.398438 906.945312 873.933594 895.199219 861.515625 878.488281 C 849.09375 861.785156 838.597656 848.238281 830.019531 837.84375 L 761.261719 752.589844 C 760.675781 751.863281 760.351562 750.957031 760.351562 750.019531 L 760.351562 721.101562 C 760.351562 720.015625 760.789062 718.96875 761.5625 718.199219 L 875.0625 605.5 C 889.289062 591.503906 898.152344 581.964844 901.652344 576.882812 C 905.148438 571.796875 906.90625 566.214844 906.90625 560.117188 C 906.90625 549.054688 901.488281 540.703125 890.648438 535.050781 C 885.523438 532.589844 877.238281 530.691406 865.796875 529.347656 C 863.742188 529.105469 862.195312 527.351562 862.195312 525.285156 L 862.195312 525.261719 C 862.195312 523 864.023438 521.167969 866.285156 521.167969 L 1004.082031 521.167969 C 1006.335938 521.167969 1008.175781 523 1008.175781 525.261719 C 1008.175781 527.332031 1006.628906 529.089844 1004.570312 529.324219 C 996.210938 530.277344 989.117188 531.792969 983.28125 533.867188 C 976.617188 536.238281 969.332031 540.246094 961.433594 545.886719 C 952.625 552.222656 937.492188 565.65625 916.050781 586.199219 L 808.984375 688.964844 C 807.46875 690.417969 807.296875 692.792969 808.59375 694.445312 L 962.449219 890.683594 L 981.75 915.410156 C 995.976562 933.027344 1010.765625 946.796875 1026.121094 956.730469 C 1035.375 962.828125 1043.503906 967.175781 1050.515625 969.773438 C 1056.734375 972.078125 1064.382812 973.890625 1073.453125 975.226562 C 1075.460938 975.519531 1076.933594 977.253906 1076.933594 979.277344 "/></g></g></svg>