<?xml version="1.0"?>
<svg width="1500" height="850" xmlns="http://www.w3.org/2000/svg" xmlns:svg="http://www.w3.org/2000/svg" preserveAspectRatio="xMidYMid meet" version="1.2">
 <defs>
  <clipPath id="e4f1f86cbf">
   <path d="m337.25,516.43l860.75,0l0,467.25l-860.75,0l0,-467.25zm0,0" id="svg_1"/>
  </clipPath>
 </defs>
 <g class="layer">
  <title>Layer 1</title>
  <g id="411b0b3cdf" transform="translate(1494.61 0.490964) matrix(0.993999 0 0 0.993999 -1491.6 -331.49)">
   <g clip-path="url(#e4f1f86cbf)" clip-rule="nonzero" id="svg_4" transform="translate(0 1) translate(0 1) translate(0 1) translate(0 1) translate(0 1) translate(0 1) translate(0 1) translate(0 1) translate(0 1) translate(0 1) translate(0 1) translate(0 1) translate(0 1) translate(0 1) translate(0 1) translate(0 1) translate(0 1) translate(0 1) translate(0 1) translate(0.74512 333.352) matrix(1.74114 0 0 1.74114 -586.753 -898.362)">
    <path d="m1148.27,884.36c-27.37,0 -49.56,22.19 -49.56,49.57c0,27.37 22.19,49.55 49.56,49.55c27.37,0 49.57,-22.18 49.57,-49.55c0,-27.38 -22.2,-49.57 -49.57,-49.57zm-550.16,-162.28c0,-3.42 -3.95,-5.33 -6.62,-3.2c-17.26,13.69 -36.02,25.87 -56.31,36.51c-25.73,13.79 -43.54,24.23 -53.41,31.3c-9.88,7.08 -18.86,15.55 -26.96,25.45c-16.58,20.53 -24.87,44.4 -24.87,71.62c0,23.34 6.44,42.62 19.31,57.84c12.85,15.19 29.16,22.81 48.91,22.81c17.27,0 33.59,-5.4 48.92,-16.19c15.33,-10.77 26.88,-25.19 34.64,-43.24c4.62,-10.03 8.28,-21.99 10.96,-35.88c0.69,-3.67 1.34,-7.45 1.91,-11.39c2.34,-16.26 3.52,-34.82 3.52,-55.65l0,-79.98zm162.24,256.28l0,1.03c0,2.26 -1.83,4.09 -4.09,4.09l-61.07,0c-25.15,0 -46.05,-6.18 -62.68,-18.54c-10.21,-7.56 -20.71,-20.3 -31.51,-38.21c-1.31,-2.18 -4.3,-2.62 -6.21,-0.94c-4.17,3.7 -8.15,7.16 -11.95,10.37c-16.11,13.68 -28.77,23.09 -38,28.25c-6.07,3.36 -12.4,6.27 -18.98,8.71c-4.93,1.87 -10,3.47 -15.22,4.81c-14.25,3.7 -29.6,5.55 -46.02,5.55c-38.98,0 -69.87,-9.36 -92.72,-28.1c-22.85,-18.73 -34.25,-44.02 -34.25,-75.85c0,-29.37 9.35,-53.93 28.1,-73.74c10.61,-10.95 22.81,-19.71 36.62,-26.27c13.79,-6.54 33.76,-13.16 59.93,-19.88c30.77,-7.78 53.5,-14.33 68.18,-19.63c14.66,-5.31 26.96,-11.67 36.86,-19.1c11.32,-8.12 19.11,-17.68 23.34,-28.65c4.25,-10.96 6.37,-26.17 6.37,-45.62c0,-41.38 -7.78,-71.62 -23.34,-90.72c-7.08,-8.82 -16.19,-15.9 -27.33,-21.22c-5.3,-2.52 -10.68,-4.43 -16.18,-5.76c-1.87,-0.44 -3.22,-2.07 -3.22,-3.99l0,-4.21c0,-2.43 2.09,-4.35 4.5,-4.1c13.01,1.37 26.33,3.68 39.93,6.92c23.73,5.66 43.56,12.92 59.51,21.74c23.03,13.1 37.37,30.09 43.05,50.93c2.83,10.62 4.23,28.48 4.23,53.59l0,196.29c0,4.03 0.03,7.9 0.07,11.6l0.03,0l0,3.25c0,26.49 1.49,46.17 4.49,59.03c2.99,12.89 8.53,23.52 16.61,31.85c7.03,7.29 15.17,12.71 24.42,16.21c5.88,2.24 12.95,3.93 21.2,5.07c3.6,0.48 7.43,0.86 11.48,1.15c2.16,0.16 3.85,1.93 3.85,4.09zm316.58,0.92l0,0.11c0,2.26 -1.84,4.09 -4.09,4.09l-215.7,0c-2.26,0 -4.09,-1.83 -4.09,-4.09l0,-1.12c0,-2.11 1.62,-3.89 3.74,-4.07c15,-1.31 25.94,-3 32.84,-6.97c7.45,-4.29 11.18,-10.61 11.18,-18.97c0,-9.03 -4.64,-20.54 -13.9,-34.55c-4.51,-6.76 -12.98,-18.51 -25.39,-35.22c-12.43,-16.7 -22.92,-30.25 -31.5,-40.65l-68.76,-85.25c-0.58,-0.73 -0.91,-1.63 -0.91,-2.57l0,-28.92c0,-1.08 0.44,-2.13 1.21,-2.9l113.5,-112.7c14.23,-14 23.09,-23.54 26.59,-28.62c3.5,-5.08 5.26,-10.67 5.26,-16.76c0,-11.07 -5.42,-19.42 -16.26,-25.07c-5.13,-2.46 -13.41,-4.36 -24.85,-5.7c-2.06,-0.24 -3.6,-2 -3.6,-4.06l0,-0.03c0,-2.26 1.82,-4.09 4.09,-4.09l137.79,0c2.26,0 4.1,1.83 4.1,4.09c0,2.07 -1.55,3.83 -3.61,4.06c-8.36,0.96 -15.45,2.47 -21.29,4.55c-6.66,2.37 -13.95,6.38 -21.85,12.02c-8.8,6.33 -23.94,19.77 -45.38,40.31l-107.07,102.76c-1.51,1.46 -1.68,3.83 -0.39,5.49l153.86,196.23l19.3,24.73c14.23,17.62 29.02,31.39 44.37,41.32c9.26,6.1 17.38,10.45 24.4,13.04c6.21,2.31 13.86,4.12 22.93,5.46c2.01,0.29 3.48,2.02 3.48,4.05" fill="#7c7f7e" fill-rule="nonzero" id="svg_5"/>
   </g>
  </g>
  <g clip-path="url(#e4f1f86cbf)" clip-rule="nonzero" id="svg_9" transform="translate(0 -1) translate(0 -1) translate(0 -1) translate(0 -1) translate(0 -1) translate(0 -1) translate(0 -1) translate(0 -1) translate(0 -1) translate(0 -1) translate(0 -1) translate(0 -1) translate(0 -1) translate(0 -1) translate(0 -1) translate(0 -1) translate(0 -1) translate(0 -1) translate(0 -1) translate(0 -1) translate(0 -1) translate(0 -1) translate(0 -1) translate(0 -1) translate(0 -1) translate(0 -1) translate(0 -1) translate(0 -1) translate(0 -1) translate(0 -1) translate(0 -1) translate(0 -1) translate(0 -1) translate(0 -1) translate(0 -1) translate(0 -1) translate(0 -1) translate(0 -1) translate(0 -1) translate(0 -1) translate(0 -1) translate(0 -1) translate(0 -1) translate(0 -1) translate(0 -1) translate(0 -1) translate(0 -1) translate(0 -1) translate(0 -1) translate(0 -1) translate(0 -1) translate(0 -1) translate(0 -1) translate(0 -1) translate(0 -1) translate(0 -1) translate(0 -1) translate(0 -1) translate(0 -1) translate(0 -1) translate(0 -1) translate(0 -1) translate(0 -1) translate(0 -1) translate(0 -1) translate(0 -1) translate(0 -1) translate(0 -1) translate(0 -1) translate(0 -1) translate(0 -1) translate(0 -1) translate(0 -1) translate(0 -1) translate(0 -1) translate(0 -1) translate(0 -1) translate(0 -1) translate(0 -1) translate(0 -1) translate(0 -1) translate(0 -1) translate(0 -1) translate(0 -1) translate(0 -1) translate(0 -1) translate(0 -1) translate(0 -1) translate(0 -1) translate(0 -1) translate(0 -1) translate(0 -1) translate(0 -1) translate(0 -1) translate(0 -1) translate(0 -1) translate(0 -1) translate(0 -1) translate(0 -1) translate(0 -1) translate(0 -1) translate(0 -1) translate(0 -1) translate(0 -1) translate(0 -1) translate(0 -1) translate(0 -1) translate(0 -1) translate(0 -1) translate(0 -1) translate(0 -1) translate(0 -1) translate(0 -1) translate(0 -1) translate(0 -1) translate(0 -1) translate(0 -1) translate(0 -1) translate(0 -1) translate(0 -1) translate(0 -1) translate(0 -1) translate(0 -1) translate(0 -1) translate(0 -1) translate(0 -1) translate(0 -1) translate(0 -1) translate(0 -1) translate(0 -1) translate(0 -1) translate(0 -1) translate(0 -1) translate(0 -1) translate(0 -1) translate(0 -1) translate(0 -1) translate(0 -1) translate(0 -1) translate(0 -1) translate(0 -1) translate(0 -1) translate(0 -1) translate(0 -1) translate(0 -1) translate(0 -1) translate(0 -1) translate(0 -1) translate(0 -1) translate(0 -1) translate(0 -1) translate(0 -1) translate(0 -1) translate(0 -1) translate(0 -1) translate(0 -1) translate(0 -1) translate(0 -1) translate(0 -1) translate(0 -1) translate(0 -1) translate(0 -1) translate(0 -1) translate(0 -1) translate(0 -1) translate(0 -1) translate(0 -1) translate(0 -1) translate(0 -1) translate(0 -1) translate(0 -1) translate(0 -1) translate(0 -1) translate(0 -1) translate(0 -1) translate(0 -1) translate(0 -1) translate(0 -1) translate(0 -1) translate(0 -1) translate(0 -1) translate(0 -1) translate(0 -1) translate(0 -1) translate(0 -1) translate(0 -1) translate(0 -1) translate(0 -1) translate(0 -1) translate(0 -1) translate(0 -1) translate(0 -1) translate(0 -1) translate(0 -1) translate(0 -1) translate(0 -1) translate(0 -1) translate(0 -1) translate(0 -1) translate(0 -1) translate(0 -1) translate(0 -1) translate(0 -1) translate(0 -1) translate(0 -1) translate(0 -1) translate(0 -1) translate(0 -1) translate(0 -1) translate(0 -1) translate(0 -1) translate(0 -1) translate(0 -1) translate(0 -1) translate(0 -1) translate(0 -1) translate(0 -1) translate(0 -1) translate(0 -1) translate(0 -1) translate(0 -1) translate(0 -1) translate(0 -1) translate(0 -1) translate(0 -1) translate(0 -1) translate(0 -1) translate(0 -1) translate(0 -1) translate(0 -1) translate(0 -1) translate(0 -1) translate(0 -1) translate(0 -1) translate(0 -1) translate(0 -1) translate(0 -1) translate(0 -1) translate(0 -1) translate(0 -1) translate(0 -1) translate(0 -1) translate(0 -1) translate(0 -1) translate(0 -1) translate(0 -1) translate(0 -1) translate(0 -1) translate(0 -1) translate(0 -1) translate(0 -1) translate(0 -1) translate(0 -1) translate(0 -1) translate(0 -1) translate(0 -1) translate(0 -1) translate(0 -1) translate(0 -1) translate(0 -1) translate(0 -1) translate(0 -1) translate(0 -1) translate(0 -1) translate(0 -1) translate(0 -1) translate(0 -1) translate(0 -1) translate(0 -1) translate(0 -1) translate(0 -1) translate(0 -1) translate(0 -1) translate(0 -1) translate(0 -1) translate(0 -1) translate(0 -1) translate(0 -1) translate(0 -1) translate(0 -1) translate(0 -1) translate(0 -1) translate(0 -1) translate(0 -1) translate(0 -1) translate(0 -1) translate(0 -1) translate(0 -1) translate(0 -1) translate(0 -1) translate(0 -1) translate(0 -1) translate(0 -1) translate(0 -1) translate(0 -1) translate(0 -1) translate(0 -1) translate(0 -1) translate(0 -1) translate(0 -1) translate(0 -1) translate(0 -1) translate(0 -1) translate(0 -1) translate(0 -1) translate(0 -1) translate(0 -1) translate(0 -1) translate(0 -1) translate(0 -1) translate(0 -1) translate(0 -1) translate(0 -1) translate(0 -1) translate(0 -1) translate(0 -1) translate(0 -1) translate(0 -1) translate(0 -1) translate(0 -1) translate(0 -1) translate(0 -1) translate(0 -1) translate(0 -1) translate(0 -1) translate(0 -1) translate(0 -1) translate(0 -1) translate(0 -1) translate(0 -1) translate(0 -1) translate(0 -1) translate(0 -1) translate(-771 63)">
   <path d="m1148.27,884.36c-27.37,0 -49.56,22.19 -49.56,49.57c0,27.37 22.19,49.55 49.56,49.55c27.37,0 49.57,-22.18 49.57,-49.55c0,-27.38 -22.2,-49.57 -49.57,-49.57zm-550.16,-162.28c0,-3.42 -3.95,-5.33 -6.62,-3.2c-17.26,13.69 -36.02,25.87 -56.31,36.51c-25.73,13.79 -43.54,24.23 -53.41,31.3c-9.88,7.08 -18.86,15.55 -26.96,25.45c-16.58,20.53 -24.87,44.4 -24.87,71.62c0,23.34 6.44,42.62 19.31,57.84c12.85,15.19 29.16,22.81 48.91,22.81c17.27,0 33.59,-5.4 48.92,-16.19c15.33,-10.77 26.88,-25.19 34.64,-43.24c4.62,-10.03 8.28,-21.99 10.96,-35.88c0.69,-3.67 1.34,-7.45 1.91,-11.39c2.34,-16.26 3.52,-34.82 3.52,-55.65l0,-79.98zm162.24,256.28l0,1.03c0,2.26 -1.83,4.09 -4.09,4.09l-61.07,0c-25.15,0 -46.05,-6.18 -62.68,-18.54c-10.21,-7.56 -20.71,-20.3 -31.51,-38.21c-1.31,-2.18 -4.3,-2.62 -6.21,-0.94c-4.17,3.7 -8.15,7.16 -11.95,10.37c-16.11,13.68 -28.77,23.09 -38,28.25c-6.07,3.36 -12.4,6.27 -18.98,8.71c-4.93,1.87 -10,3.47 -15.22,4.81c-14.25,3.7 -29.6,5.55 -46.02,5.55c-38.98,0 -69.87,-9.36 -92.72,-28.1c-22.85,-18.73 -34.25,-44.02 -34.25,-75.85c0,-29.37 9.35,-53.93 28.1,-73.74c10.61,-10.95 22.81,-19.71 36.62,-26.27c13.79,-6.54 33.76,-13.16 59.93,-19.88c30.77,-7.78 53.5,-14.33 68.18,-19.63c14.66,-5.31 26.96,-11.67 36.86,-19.1c11.32,-8.12 19.11,-17.68 23.34,-28.65c4.25,-10.96 6.37,-26.17 6.37,-45.62c0,-41.38 -7.78,-71.62 -23.34,-90.72c-7.08,-8.82 -16.19,-15.9 -27.33,-21.22c-5.3,-2.52 -10.68,-4.43 -16.18,-5.76c-1.87,-0.44 -3.22,-2.07 -3.22,-3.99l0,-4.21c0,-2.43 2.09,-4.35 4.5,-4.1c13.01,1.37 26.33,3.68 39.93,6.92c23.73,5.66 43.56,12.92 59.51,21.74c23.03,13.1 37.37,30.09 43.05,50.93c2.83,10.62 4.23,28.48 4.23,53.59l0,196.29c0,4.03 0.03,7.9 0.07,11.6l0.03,0l0,3.25c0,26.49 1.49,46.17 4.49,59.03c2.99,12.89 8.53,23.52 16.61,31.85c7.03,7.29 15.17,12.71 24.42,16.21c5.88,2.24 12.95,3.93 21.2,5.07c3.6,0.48 7.43,0.86 11.48,1.15c2.16,0.16 3.85,1.93 3.85,4.09zm316.58,0.92l0,0.11c0,2.26 -1.84,4.09 -4.09,4.09l-215.7,0c-2.26,0 -4.09,-1.83 -4.09,-4.09l0,-1.12c0,-2.11 1.62,-3.89 3.74,-4.07c15,-1.31 25.94,-3 32.84,-6.97c7.45,-4.29 11.18,-10.61 11.18,-18.97c0,-9.03 -4.64,-20.54 -13.9,-34.55c-4.51,-6.76 -12.98,-18.51 -25.39,-35.22c-12.43,-16.7 -22.92,-30.25 -31.5,-40.65l-68.76,-85.25c-0.58,-0.73 -0.91,-1.63 -0.91,-2.57l0,-28.92c0,-1.08 0.44,-2.13 1.21,-2.9l113.5,-112.7c14.23,-14 23.09,-23.54 26.59,-28.62c3.5,-5.08 5.26,-10.67 5.26,-16.76c0,-11.07 -5.42,-19.42 -16.26,-25.07c-5.13,-2.46 -13.41,-4.36 -24.85,-5.7c-2.06,-0.24 -3.6,-2 -3.6,-4.06l0,-0.03c0,-2.26 1.82,-4.09 4.09,-4.09l137.79,0c2.26,0 4.1,1.83 4.1,4.09c0,2.07 -1.55,3.83 -3.61,4.06c-8.36,0.96 -15.45,2.47 -21.29,4.55c-6.66,2.37 -13.95,6.38 -21.85,12.02c-8.8,6.33 -23.94,19.77 -45.38,40.31l-107.07,102.76c-1.51,1.46 -1.68,3.83 -0.39,5.49l153.86,196.23l19.3,24.73c14.23,17.62 29.02,31.39 44.37,41.32c9.26,6.1 17.38,10.45 24.4,13.04c6.21,2.31 13.86,4.12 22.93,5.46c2.01,0.29 3.48,2.02 3.48,4.05" fill="none" fill-rule="nonzero" id="svg_10"/>
  </g>
 </g>
</svg>